<?xml version="1.0" encoding="utf-8"?>
<!-- Generator: Adobe Illustrator 23.1.1, SVG Export Plug-In . SVG Version: 6.00 Build 0)  -->
<svg version="1.1" id="Layer_1" xmlns="http://www.w3.org/2000/svg" xmlns:xlink="http://www.w3.org/1999/xlink" x="0px" y="0px"
	 viewBox="0 0 380.1 67.2" style="enable-background:new 0 0 380.1 67.2;" xml:space="preserve">
<style type="text/css">
	.st0{enable-background:new    ;}
	.st1{fill:#E9E8E3;}
</style>
<title>Asset 2</title>
<g>
	<g id="Layer_1-2">
		<g class="st0">
			<path class="st1" d="M94.2,54.4c-9.3,0-16.5-4.5-16.5-12.3h10.9c0,3.1,2.4,4.6,5.5,4.6c2.7,0,4.3-1,4.3-3c0-6.2-20-0.2-20-14.8
				c0-6.9,6.4-11,14.8-11c9,0,15.8,5.2,15.8,11.8H98c0-2.4-2-4.1-4.7-4.1c-2.5,0-4.1,1-4.1,2.7c0,5.6,20.2,0.1,20.2,14.6
				C109.5,50.2,103,54.4,94.2,54.4z"/>
		</g>
		<g class="st0">
			<path class="st1" d="M129.3,28.3c-4.1,0-6.9,3.2-6.9,7.8c0,4.8,2.7,7.8,6.9,7.8c3.3,0,6-1.8,6.4-5.7h11.8
				c-0.5,9.6-7.8,16.1-18.3,16.1c-10.5,0-18.3-7.5-18.3-18.2S118.7,18,129.2,18c10.2,0,17.3,6.2,18.2,15.3h-11.8
				C135.1,29.9,132.4,28.3,129.3,28.3z"/>
		</g>
		<g class="st0">
			<path class="st1" d="M161.1,53.7h-11.9v-35h11.2v6.6c2.1-4.7,5.9-7.3,10.7-7.3c0.6,0,1.3,0,1.8,0.1v11.6c-1-0.4-2.2-0.6-3.6-0.6
				c-5.2,0-8.1,2.5-8.1,7V53.7z"/>
		</g>
		<g class="st0">
			<path class="st1" d="M174.5,7c0-3.6,2.9-6.4,6.8-6.4c4,0,6.9,2.8,6.9,6.4c0,3.6-2.9,6.5-6.9,6.5C177.4,13.5,174.5,10.6,174.5,7z
				 M175.3,53.7v-35h11.9v35H175.3z"/>
		</g>
		<g class="st0">
			<path class="st1" d="M211.4,54.4c-4.3,0-8-1.9-10.5-5.2v4.5h-11.6V1.1h11.9v21.6c2.5-3,6-4.8,10.2-4.8c9.4,0,15.8,7.1,15.8,18.2
				C227.1,47.2,220.8,54.4,211.4,54.4z M201.2,36.2c0,4.7,3,7.8,7.2,7.8s7.1-3.2,7.1-7.8s-2.9-7.8-7.1-7.8S201.2,31.5,201.2,36.2z"
				/>
			<path class="st1" d="M250.9,54.4c-4.3,0-8-1.9-10.5-5.2v4.5h-11.6V1.1h11.9v21.6c2.5-3,6-4.8,10.2-4.8c9.4,0,15.8,7.1,15.8,18.2
				C266.7,47.2,260.3,54.4,250.9,54.4z M240.8,36.2c0,4.7,3,7.8,7.2,7.8c4.2,0,7.1-3.2,7.1-7.8s-2.9-7.8-7.1-7.8
				C243.8,28.3,240.8,31.5,240.8,36.2z"/>
			<path class="st1" d="M268.4,53.7V1.1h11.9v52.5H268.4z"/>
		</g>
		<g class="st0">
			<path class="st1" d="M318.1,39h-24.8c0.7,4.1,3.1,6.2,7.1,6.2c2.7,0,4.7-0.9,5.6-3h11.4c-2.2,8.1-8.3,12.3-17.3,12.3
				c-10.5,0-18.1-7.5-18.1-18.2S289.6,18,300.1,18c10.6,0,18.1,7.5,18.1,18.2C318.2,37.1,318.1,38,318.1,39z M293.3,33H307
				c-0.8-4-3.2-5.8-6.9-5.8C296.5,27.2,294.1,29.2,293.3,33z"/>
			<path class="st1" d="M345.8,49.2c-2.5,3.3-6.2,5.2-10.5,5.2c-9.3,0-15.8-7.1-15.8-18.2c0-11.1,6.4-18.2,15.8-18.2
				c4.1,0,7.6,1.8,10.2,4.8V1.1h11.9v52.5h-11.6V49.2z M331.1,36.2c0,4.7,3,7.8,7.2,7.8c4.1,0,7.1-3.2,7.1-7.8s-3-7.8-7.1-7.8
				C334.2,28.3,331.1,31.5,331.1,36.2z"/>
		</g>
		<g class="st0">
			<path class="st1" d="M369.6,22.1h10.6v6.4h-20.4V26c0-9.1,12.7-12.1,12.7-16.4c0-1.5-1-2.4-2.5-2.4c-1.7,0-2.6,0.8-2.6,2.9V11
				h-7.5V9.6c0-5.7,4.5-8.8,10.1-8.8c5.5,0,10,2.9,10,8.4C379.9,15.7,371.7,19.1,369.6,22.1z"/>
		</g>
	</g>
	<g id="Layer_2-2">
		<g>
			<path class="st1" d="M31.1,67.2c-1.7,0-3.2-0.6-4.4-1.8c-4.7-4.7-0.4-12.5,12.6-34.3c1.5-2.5,3.2-5.3,4.9-8.2
				c-3.2,3.9-6.4,8-9.1,11.4C19.7,54.1,12.8,62.1,6.9,62.5C5,62.6,3.2,62,1.8,60.6c-4.3-4.3-1-11.2,9.2-30c-1.5,1.3-3,1.9-4.5,2
				c-1.7,0.1-3.4-0.5-4.7-1.7c-2-1.9-2-5.1,0-7.1c0.9-0.9,2.2-1.4,3.4-1.5c1.8-1.8,5-6.2,7.1-9C18.8,4.7,22,0.5,26.2,0.2
				c1.7-0.1,3.4,0.5,4.6,1.7c4.4,4.4,0.8,11.6-10.2,31.8c-1.3,2.4-2.9,5.3-4.4,8.1c3.7-4.5,7.7-9.5,10.9-13.7
				C42.7,8.4,49.6,0.4,55.5,0c1.9-0.1,3.7,0.6,5.1,1.9c4.5,4.5,0.8,11.9-11.1,31.9c4.9-6,7.9-8.5,11.2-8.7c1.8-0.1,3.5,0.5,4.8,1.8
				c2.7,2.8,2.3,7,0.5,19.8c-0.4,2.8-0.9,6.4-1.2,9.3c0.2,0.2,0.5,0.4,0.7,0.6c1.9,1.9,2,5.1,0,7C65,64.8,64,66.3,62,66.9
				c-1.9,0.6-4,0.1-5.5-1.5c-2.8-2.7-2.3-7-0.5-20.2c0.2-1.3,0.4-2.9,0.6-4.5c-2.1,2.7-4.5,5.7-6.3,8.2c-9.8,13-14,17.9-18.7,18.2
				C31.4,67.2,31.2,67.2,31.1,67.2z M57.2,32.1C57.2,32.1,57.2,32.1,57.2,32.1C57.2,32.1,57.2,32.1,57.2,32.1z M8.9,23.8
				C8.9,23.8,8.9,23.8,8.9,23.8C8.9,23.8,8.9,23.8,8.9,23.8z"/>
		</g>
	</g>
</g>
</svg>
