<svg xmlns="http://www.w3.org/2000/svg" viewBox="0 0 67.48 67.21"><defs><style>.cls-1{fill:#e9e8e3;}</style></defs><title>Asset 1</title><g id="Layer_2" data-name="Layer 2"><g id="Layer_1-2" data-name="Layer 1"><path class="cls-1" d="M31.14,67.21a6,6,0,0,1-4.4-1.8c-4.7-4.7-.4-12.5,12.6-34.3,1.5-2.5,3.2-5.3,4.9-8.2-3.2,3.9-6.4,8-9.1,11.4-15.4,19.8-22.3,27.8-28.2,28.2a6.54,6.54,0,0,1-5.1-1.9c-4.3-4.3-1-11.2,9.2-30a7.54,7.54,0,0,1-4.5,2,6.38,6.38,0,0,1-4.7-1.7,5,5,0,0,1,0-7.1,5.56,5.56,0,0,1,3.4-1.5,113.73,113.73,0,0,0,7.1-9C18.84,4.71,22,.51,26.24.21a6,6,0,0,1,4.6,1.7c4.4,4.4.8,11.6-10.2,31.8-1.3,2.4-2.9,5.3-4.4,8.1,3.7-4.5,7.7-9.5,10.9-13.7C42.74,8.41,49.64.41,55.54,0a6.92,6.92,0,0,1,5.1,1.9c4.5,4.5.8,11.9-11.1,31.9,4.9-6,7.9-8.5,11.2-8.7a6.17,6.17,0,0,1,4.8,1.8c2.7,2.8,2.3,7,.5,19.8-.4,2.8-.9,6.4-1.2,9.3.2.2.5.4.7.6a4.92,4.92,0,0,1,0,7,5.48,5.48,0,0,1-3.5,3.3,5.28,5.28,0,0,1-5.5-1.5c-2.8-2.7-2.3-7-.5-20.2.2-1.3.4-2.9.6-4.5-2.1,2.7-4.5,5.7-6.3,8.2-9.8,13-14,17.9-18.7,18.2A1.09,1.09,0,0,1,31.14,67.21Z"/></g></g></svg>